<svg width="1920" height="1080" viewBox="0 0 1920 1080" xmlns="http://www.w3.org/2000/svg"><rect width="1920" height="1080" fill="#a3a8dc"/><path d="M 0,1080 C 0,1080 0,154 0,154 C 143.05263157894737,148.28708133971293 286.10526315789474,142.57416267942583 399,137 C 511.89473684210526,131.42583732057417 594.6315789473683,125.99043062200957 718,141 C 841.3684210526317,156.00956937799043 1005.3684210526317,191.46411483253587 1140,194 C 1274.6315789473683,196.53588516746413 1379.8947368421052,166.1531100478469 1505,154 C 1630.1052631578948,141.8468899521531 1775.0526315789475,147.92344497607655 1920,154 C 1920,154 1920,1080 1920,1080 Z" fill="#ffffff" opacity="0.08571428571428572"/><path d="M 0,1080 C 0,1080 0,308 0,308 C 94.30622009569379,290.67942583732054 188.61244019138758,273.35885167464113 342,274 C 495.3875598086124,274.64114832535887 707.8564593301434,293.244019138756 834,315 C 960.1435406698566,336.755980861244 999.9617224880385,361.6650717703349 1119,360 C 1238.0382775119615,358.3349282296651 1436.2966507177034,330.0956937799043 1583,317 C 1729.7033492822966,303.9043062200957 1824.8516746411483,305.95215311004785 1920,308 C 1920,308 1920,1080 1920,1080 Z" fill="#ffffff" opacity="0.17142857142857143"/><path d="M 0,1080 C 0,1080 0,462 0,462 C 116.21052631578951,487.7129186602871 232.42105263157902,513.4258373205741 365,505 C 497.578947368421,496.5741626794258 646.5263157894735,454.00956937799043 782,429 C 917.4736842105265,403.99043062200957 1039.4736842105265,396.53588516746413 1151,408 C 1262.5263157894735,419.46411483253587 1363.5789473684208,449.8468899521531 1490,462 C 1616.4210526315792,474.1531100478469 1768.2105263157896,468.07655502392345 1920,462 C 1920,462 1920,1080 1920,1080 Z" fill="#ffffff" opacity="0.2571428571428571"/><path d="M 0,1080 C 0,1080 0,617 0,617 C 114.97607655502392,649.909090909091 229.95215311004785,682.8181818181819 357,669 C 484.04784688995215,655.1818181818181 623.1674641148325,594.6363636363636 780,595 C 936.8325358851675,595.3636363636364 1111.3779904306218,656.6363636363637 1219,673 C 1326.6220095693782,689.3636363636363 1367.3205741626796,660.8181818181818 1473,644 C 1578.6794258373204,627.1818181818182 1749.33971291866,622.0909090909091 1920,617 C 1920,617 1920,1080 1920,1080 Z" fill="#ffffff" opacity="0.34285714285714286"/><path d="M 0,1080 C 0,1080 0,771 0,771 C 95.25358851674642,744.7607655502393 190.50717703349284,718.5215311004785 334,739 C 477.49282296650716,759.4784688995215 669.224880382775,826.6746411483255 797,825 C 924.775119617225,823.3253588516745 988.5933014354066,752.77990430622 1117,742 C 1245.4066985645934,731.22009569378 1438.4019138755982,780.2057416267943 1583,795 C 1727.5980861244018,809.7942583732057 1823.7990430622008,790.3971291866028 1920,771 C 1920,771 1920,1080 1920,1080 Z" fill="#ffffff" opacity="0.4285714285714286"/><path d="M 0,1080 C 0,1080 0,925 0,925 C 148.88995215311007,958.0717703349283 297.77990430622015,991.1435406698565 414,975 C 530.2200956937799,958.8564593301435 613.7703349282298,893.4976076555024 722,875 C 830.2296650717702,856.5023923444976 963.1387559808611,884.8660287081339 1122,892 C 1280.861244019139,899.1339712918661 1465.6746411483252,885.0382775119618 1603,887 C 1740.3253588516748,888.9617224880382 1830.1626794258373,906.980861244019 1920,925 C 1920,925 1920,1080 1920,1080 Z" fill="#ffffff" opacity="0.5142857142857142"/><path d="M 0,1080 C 0,1080 0,1079 0,1079 C 126.72727272727272,1098.0143540669856 253.45454545454544,1117.0287081339713 373,1106 C 492.54545454545456,1094.9712918660287 604.9090909090909,1053.8995215311006 719,1041 C 833.0909090909091,1028.1004784688994 948.9090909090908,1043.3732057416266 1092,1050 C 1235.0909090909092,1056.6267942583734 1405.4545454545455,1054.6076555023924 1548,1058 C 1690.5454545454545,1061.3923444976076 1805.2727272727273,1070.1961722488038 1920,1079 C 1920,1079 1920,1080 1920,1080 Z" fill="#ffffff" opacity="0.6"/></svg>